<svg width="107" height="97" viewBox="0 0 107 97" fill="none" xmlns="http://www.w3.org/2000/svg">
<path d="M48.6666 31.5833V28.6666C48.6666 27.1195 49.2812 25.6358 50.3752 24.5419C51.4691 23.4479 52.9529 22.8333 54.5 22.8333H79.2916L95.3333 38.875V75.3333C95.3333 76.8804 94.7187 78.3641 93.6247 79.4581C92.5308 80.5521 91.0471 81.1666 89.5 81.1666H48.6666" stroke="black" stroke-width="5.83333" stroke-linecap="round" stroke-linejoin="round"/>
<path d="M77.8334 22.8333V40.3333H95.3334" stroke="black" stroke-width="5.83333" stroke-linecap="round" stroke-linejoin="round"/>
<g clip-path="url(#clip0_81_37)">
<path d="M60.7614 37.539H77.6631C79.6053 37.539 80.6574 39.8128 79.4004 41.2932L32.6099 96.3879C31.4713 97.7285 29.2935 96.6916 29.616 94.9629L36.2392 59.4611H19.3364C17.3942 59.4611 16.3421 57.1871 17.5995 55.7069L64.39 0.611978C65.5284 -0.72859 67.7064 0.308285 67.3839 2.03704L60.7614 37.539Z" fill="#F7C600"/>
<path opacity="0.1" d="M32.0614 93.0741L38.6539 57.736C38.7356 57.2992 38.4001 56.8954 37.9558 56.8954H21.5858C19.7037 56.8954 18.6434 54.8007 19.6454 53.2977L17.5995 55.7068C16.3421 57.1872 17.3943 59.461 19.3364 59.461H36.2392L29.6159 94.9627C29.2935 96.6915 31.4712 97.7284 32.6098 96.3878L33.6664 95.1437C32.715 95.0698 31.8473 94.2222 32.0614 93.0741Z" fill="black"/>
<path opacity="0.3" d="M57.9528 28.8643C57.9528 31.0254 59.5173 32.8172 61.5749 33.1794L63.1824 24.5616C62.909 24.5084 62.6273 24.4786 62.3386 24.4786C59.9165 24.4783 57.9528 26.4419 57.9528 28.8643ZM77.6634 37.5389H68.3571C69.4054 40.9692 72.5952 43.4643 76.3685 43.4643C76.8001 43.4643 77.2241 43.4313 77.6382 43.3684L79.4007 41.2929C80.6577 39.8128 79.6057 37.5389 77.6634 37.5389ZM64.3902 0.611945L55.5804 10.9851C55.8392 15.9571 59.1876 20.1095 63.7417 21.5631L67.3841 2.03663C67.7066 0.308063 65.5286 -0.728433 64.3902 0.611945Z" fill="white"/>
</g>
<defs>
<clipPath id="clip0_81_37">
<rect width="97" height="97" fill="white"/>
</clipPath>
</defs>
</svg>
